<?xml version="1.0" encoding="UTF-8" standalone="no"?>
<!DOCTYPE svg PUBLIC "-//W3C//DTD SVG 1.1//EN" "http://www.w3.org/Graphics/SVG/1.1/DTD/svg11.dtd">
<svg version="1.1" xmlns="http://www.w3.org/2000/svg" xmlns:xlink="http://www.w3.org/1999/xlink" preserveAspectRatio="xMidYMid meet" viewBox="0 0 360 202" width="360" height="202"><defs><path d="M360 0L360 202C354.58 192.11 351.2 185.92 349.84 183.45C344.74 174.14 338.16 165.72 330.35 158.53C328.47 156.8 334.11 161.99 332.1 160.14C324.71 153.34 316.38 147.65 307.35 143.25C303.48 141.37 307.47 143.31 304.1 141.67C293.38 136.45 282.16 132.36 270.59 129.47C269.24 129.14 265.87 128.29 260.47 126.95L232.32 118.66C223.02 115.55 217.21 113.61 214.88 112.83C200.26 107.94 186.33 101.16 173.47 92.66C171.69 91.48 167.23 88.53 160.09 83.82L128.58 56.23C116.94 47.82 109.66 42.57 106.75 40.47C98.05 34.18 88.66 28.9 78.77 24.72C73.73 22.6 76.21 23.64 71.85 21.8C59.69 16.67 47.17 12.4 34.4 9.05C29.82 7.84 18.35 4.82 0 0L360 0Z" id="b4kb4OPP5j"></path></defs><g><g><g><use xlink:href="#b4kb4OPP5j" opacity="1" fill="#f5511e" fill-opacity="1"></use></g></g></g></svg>